<svg xmlns="http://www.w3.org/2000/svg" xmlns:xlink="http://www.w3.org/1999/xlink" xmlns:serif="http://www.serif.com/" width="100%" height="100%" viewBox="0 0 2238 542" version="1.1" xml:space="preserve" style="fill-rule:evenodd;clip-rule:evenodd;stroke-linejoin:round;stroke-miterlimit:1.41421;">
        <g transform="matrix(4.16667,0,0,4.16667,405.632,541.977)">
            <path d="M0,-130.074L35.242,-130.074L-29.969,0L-47.987,-34.634L0,-130.074Z" style="fill:rgb(202,219,42);fill-rule:nonzero;"/>
        </g>
        <g transform="matrix(4.16667,0,0,4.16667,753.857,541.977)">
            <path d="M0,-130.074L35.242,-130.074L-29.969,0L-47.987,-34.634L0,-130.074Z" style="fill:rgb(153,202,60);fill-rule:nonzero;"/>
        </g>
        <g transform="matrix(4.16667,0,0,4.16667,0,209.577)">
            <path d="M0,-50.298L25.963,0L51.091,-50.298L0,-50.298Z" style="fill:rgb(248,237,47);fill-rule:nonzero;"/>
        </g>
        <g transform="matrix(4.16667,0,0,4.16667,2219.93,0.000833333)">
            <path d="M0,130.074L0,100.515L-54.455,100.515L4.215,0L-104.029,0L-104.029,29.185L-48.217,29.185L-107.975,130.074L0,130.074Z" style="fill:rgb(147,149,152);fill-rule:nonzero;"/>
        </g>
        <g transform="matrix(4.16667,0,0,4.16667,1102.97,205.875)">
            <path d="M0,31.254L-19.977,31.254L-10.189,11.01L0,31.254ZM-75.834,80.664L-43.865,80.664L-33.924,60.102L14.519,60.102L24.869,80.664L57.119,80.664L-10.535,-49.41L-75.834,80.664Z" style="fill:rgb(147,149,152);fill-rule:nonzero;"/>
        </g>
        <g transform="matrix(4.16667,0,0,4.16667,1595.94,541.977)">
            <path d="M0,-130.074L-29.842,-85.266L-59.684,-130.074L-93.16,-130.074L-44.461,-57.102L-44.461,0L-15.244,0L-15.244,-57.07L33.479,-130.074L0,-130.074Z" style="fill:rgb(147,149,152);fill-rule:nonzero;"/>
        </g>
    </svg>