<svg width="100%" height="100%" viewBox="0 0 311 355" version="1.1" xmlns="http://www.w3.org/2000/svg" xmlns:xlink="http://www.w3.org/1999/xlink" xml:space="preserve" xmlns:serif="http://www.serif.com/" style="fill-rule:evenodd;clip-rule:evenodd;">
        <g transform="matrix(2,0,0,2,-1614.19,-1338)">
            <path d="M873.76,677.247C871.146,677.247 869.037,679.37 869.037,681.982C869.037,684.595 871.147,686.705 873.76,686.705L880.065,686.705L880.065,699.279C843.964,701.721 815.339,731.855 815.339,768.565C815.338,806.867 846.499,838.027 884.801,838.027C923.103,838.027 954.263,806.867 954.263,768.565C954.263,748.185 945.44,729.834 931.415,717.115C931.723,716.894 932,716.609 932.219,716.274L934.542,712.694C935.487,711.239 935.068,709.279 933.613,708.335L922.584,701.175C921.129,700.231 919.17,700.649 918.226,702.105L915.902,705.697C915.772,705.898 915.667,706.109 915.588,706.325C907.638,702.376 898.84,699.911 889.536,699.279L889.536,686.705L895.842,686.705C898.456,686.705 900.565,684.594 900.565,681.982C900.565,679.37 898.456,677.247 895.842,677.247L873.76,677.247ZM884.801,708.561C917.886,708.561 944.805,735.48 944.805,768.565C944.805,801.649 917.885,828.569 884.801,828.569C851.717,828.569 824.797,801.649 824.797,768.565C824.797,735.48 851.717,708.561 884.801,708.561ZM884.801,723.559C882.188,723.559 880.065,725.669 880.065,728.282L880.065,768.565C880.065,771.177 882.188,773.3 884.801,773.3C887.415,773.3 889.537,771.178 889.536,768.565L889.536,728.282C889.536,725.67 887.415,723.559 884.801,723.559Z" style="fill:rgb(152,201,60);fill-rule:nonzero;stroke:rgb(152,201,60);stroke-width:4px;"></path>
        </g>
    </svg>