<svg width="100%" height="100%" viewBox="0 0 342 165" version="1.1" xmlns="http://www.w3.org/2000/svg" xmlns:xlink="http://www.w3.org/1999/xlink" xml:space="preserve" xmlns:serif="http://www.serif.com/" style="fill-rule:evenodd;clip-rule:evenodd;stroke-linejoin:round;stroke-miterlimit:1.41421;">
        <g transform="matrix(2,0,0,2,-1598.61,-1077.01)">
            <path d="M802.98,538.507C800.971,538.507 799.307,540.142 799.307,542.194L799.307,616.908C799.307,618.917 800.928,620.582 802.98,620.582L952.088,620.582C954.097,620.582 955.761,618.96 955.761,616.908L955.761,600.664L966.622,600.664C968.631,600.664 970.296,599.042 970.296,596.991L970.255,562.112C970.255,560.102 968.634,558.438 966.582,558.438L955.721,558.438L955.721,542.194C955.721,540.185 954.1,538.507 952.048,538.507L802.98,538.507ZM806.707,545.908L948.361,545.908L948.361,562.152C948.361,564.161 949.996,565.825 952.048,565.825L962.895,565.825L962.895,593.357L952.048,593.357C950.039,593.357 948.361,594.979 948.361,597.031L948.361,613.275L806.707,613.275L806.707,545.908ZM817.861,555.446C817.605,555.446 817.434,555.659 817.434,555.873L817.434,603.323C817.434,603.579 817.605,603.75 817.861,603.75L937.34,603.75C937.554,603.75 937.767,603.579 937.767,603.323L937.767,555.873C937.767,555.659 937.554,555.446 937.34,555.446L817.861,555.446Z" style="fill:rgb(152,201,60);fill-rule:nonzero;"></path>
        </g>
    </svg>