<svg width="100%" height="100%" viewBox="0 0 329 219" version="1.1" xmlns="http://www.w3.org/2000/svg" xmlns:xlink="http://www.w3.org/1999/xlink" xml:space="preserve" xmlns:serif="http://www.serif.com/" style="fill-rule:evenodd;clip-rule:evenodd;stroke-linejoin:round;stroke-miterlimit:1.41421;">
        <g transform="matrix(2,0,0,2,-2457.11,-885.427)">
            <clipPath id="_clip1">
                <rect x="1228.56" y="442.713" width="164.365" height="109.421" clip-rule="nonzero"></rect>
            </clipPath>
            <g clip-path="url(#_clip1)">
                <g transform="matrix(1,0,0,1,0,-157.358)">
                    <path d="M1348.03,608.352L1348.03,619.463L1330.63,619.463L1330.63,626.453L1347.89,626.453L1347.89,637.287L1256.26,637.287L1256.26,626.581L1273.64,626.581L1273.64,619.842L1256.3,619.842L1256.3,608.739L1273.57,608.739C1273.76,605.672 1273.92,603.067 1274.1,600.071L1329.99,600.071C1330.14,602.74 1330.28,605.219 1330.46,608.352L1348.03,608.352Z" style="fill:rgb(153,202,60);fill-rule:nonzero;"></path>
                </g>
                <g transform="matrix(1,0,0,1,0,-92.9807)">
                    <path d="M1355.04,544.704C1367.59,543.149 1369.48,544.363 1372.24,555.838C1373.18,559.755 1373.69,563.786 1374.21,567.789C1374.72,571.763 1375,575.769 1375.41,580.16L1392.92,580.16L1392.92,591.27L1375.69,591.27C1374.77,598.616 1373.99,605.59 1372.96,612.526C1372.55,615.338 1371.77,618.142 1370.81,620.819C1368.42,627.421 1363.24,629.832 1356.79,627.356C1356,627.051 1355.12,625.664 1355.12,624.775C1355.03,598.16 1355.04,571.545 1355.04,544.704" style="fill:rgb(153,202,60);fill-rule:nonzero;"></path>
                </g>
                <g transform="matrix(1,0,0,1,0,-94.2657)">
                    <path d="M1248.83,546.17L1248.83,627.949C1236.46,630.333 1235.04,629.383 1232.51,619.357C1227.15,598.095 1227.39,576.549 1232.32,555.201C1234.59,545.383 1237.82,543.933 1248.83,546.17" style="fill:rgb(153,202,60);fill-rule:nonzero;"></path>
                </g>
                <g transform="matrix(1,0,0,1,0,-94.2438)">
                    <rect x="1256.37" y="581.821" width="91.524" height="10.603" style="fill:rgb(153,202,60);"></rect>
                </g>
                <g transform="matrix(-1,-0,-0,1,2604.33,-57.835)">
                    <rect x="1256.38" y="563.695" width="91.567" height="10.444" style="fill:rgb(153,202,60);"></rect>
                </g>
                <g transform="matrix(1,0,0,1,0,-21.6065)">
                    <path d="M1347.48,545.393C1347.9,546.014 1348.07,546.147 1348.08,546.294C1349.06,556.213 1349.06,556.214 1339.01,556.214L1262.49,556.214L1256.27,556.214L1256.27,545.393L1347.48,545.393Z" style="fill:rgb(153,202,60);fill-rule:nonzero;"></path>
                </g>
                <g transform="matrix(-1,-0,-0,1,2513.94,13.8472)">
                    <rect x="1238.23" y="527.866" width="37.485" height="10.421" style="fill:rgb(153,202,60);"></rect>
                </g>
                <g transform="matrix(1,0,0,1,0,13.3772)">
                    <path d="M1328.52,538.681L1328.52,528.005C1340.38,528.005 1351.96,527.942 1363.54,528.122C1364.48,528.136 1366.02,529.705 1366.19,530.728C1366.58,533.182 1366.31,535.742 1366.31,538.681L1328.52,538.681Z" style="fill:rgb(153,202,60);fill-rule:nonzero;"></path>
                </g>
            </g>
        </g>
    </svg>