<svg width="100%" height="100%" viewBox="0 0 286 286" version="1.1" xmlns="http://www.w3.org/2000/svg" xmlns:xlink="http://www.w3.org/1999/xlink" xml:space="preserve" xmlns:serif="http://www.serif.com/" style="fill-rule:evenodd;clip-rule:evenodd;stroke-linejoin:round;stroke-miterlimit:1.41421;">
        <g transform="matrix(2,0,0,2,-2448.24,-1375.14)">
            <path d="M1225.47,687.571C1224.72,687.571 1224.12,688.183 1224.12,688.933L1224.12,694.649C1224.12,695.399 1224.72,696 1225.47,696C1228.08,696 1248.66,696 1273.31,696L1273.31,708.615L1281.74,708.615L1281.74,696C1290.85,696 1300.33,696 1309.47,696L1309.47,708.615L1317.9,708.615L1317.9,696C1342.87,696 1363.63,696 1365.74,696C1366.49,696 1367.09,695.399 1367.09,694.649L1367.09,688.933C1367.09,688.183 1366.48,687.571 1365.69,687.571L1225.47,687.571ZM1256.7,711.083C1254.77,711.083 1253.12,712.469 1252.8,714.398L1237.76,806.145C1237.44,808.074 1236.48,809.818 1235.02,811.068L1225.47,819.329C1224.65,820.044 1224.19,821.037 1224.19,822.109L1224.19,830.471L1367.09,830.471L1367.09,822.143C1367.09,821.071 1366.63,820.044 1365.8,819.329L1356.27,811.068C1354.81,809.782 1353.8,808.038 1353.51,806.145L1338.48,714.398C1338.15,712.505 1336.51,711.083 1334.58,711.083L1256.7,711.083ZM1295.64,725.228C1316.79,725.228 1333.9,742.338 1333.9,763.487C1333.9,784.6 1316.75,801.746 1295.64,801.746C1274.53,801.746 1257.38,784.636 1257.38,763.487C1257.38,742.373 1274.49,725.228 1295.64,725.228ZM1319.15,738.591L1298.04,757.447C1295.72,756.518 1292.92,756.983 1291.03,758.876C1288.49,761.412 1288.49,765.528 1291.03,768.064C1293.56,770.6 1297.68,770.6 1300.22,768.064C1302.11,766.171 1302.57,763.411 1301.64,761.053L1320.5,739.942L1319.15,738.591Z" style="fill:rgb(152,201,60);fill-rule:nonzero;"></path>
        </g>
    </svg>