<svg height="512pt" viewBox="-8 0 512 512" width="512pt" xmlns="http://www.w3.org/2000/svg"><path d="m495.484375 462.453125c0 27.363281-22.183594 49.546875-49.546875 49.546875-27.367188 0-49.550781-22.183594-49.550781-49.546875 0-27.367187 22.183593-49.550781 49.550781-49.550781 27.363281 0 49.546875 22.183594 49.546875 49.550781zm0 0" fill="#6f6571"/><path d="m458.324219 499.613281c-27.367188 0-49.550781-22.183593-49.550781-49.546875 0-10.519531 3.347656-20.328125 8.9375-28.347656-12.847657 8.953125-21.324219 23.886719-21.324219 40.734375 0 27.363281 22.183593 49.546875 49.550781 49.546875 16.847656 0 31.757812-8.445312 40.707031-21.292969-8.019531 5.585938-17.804687 8.90625-28.320312 8.90625zm0 0" fill="#5d5360"/><path d="m396.386719 156.902344h-13.207031c-10.167969.003906-17.921876 9.101562-16.308594 19.136718l34.546875 214.945313 28.003906-11.113281zm0 0" fill="#c8c5c9"/><path d="m362.90625 0h-13.625c0 4.566406 15.765625 11.175781 16.410156 15.203125l72.089844 448.554687c.652344 4.066407 4.160156 6.953126 8.144531 6.953126.4375 0 .871094-.03125 1.316407-.105469 4.507812-.726563 7.574218-4.960938 6.847656-9.460938l-71.121094-444.039062c-1.578125-9.855469-10.082031-17.105469-20.0625-17.105469zm0 0" fill="#dad8db"/><path d="m424.773438 381.933594c-.046876 0-.09375-.003906-.140626-.003906l4.074219 25.355468c5.175781-1.625 10.664063-2.507812 16.339844-2.59375l-4.132813-25.800781c-4.695312 1.917969-10.050781 3.042969-16.140624 3.042969zm0 0" fill="#c8c5c9"/><path d="m462.453125 462.453125c0 9.121094-7.394531 16.515625-16.515625 16.515625s-16.515625-7.394531-16.515625-16.515625 7.394531-16.515625 16.515625-16.515625 16.515625 7.394531 16.515625 16.515625zm0 0" fill="#fff"/><path d="m123.871094 470.710938c-4.566406 0-8.257813-3.695313-8.257813-8.257813 0-36.429687-29.636719-66.066406-66.066406-66.066406-10.675781 0-20.863281 2.46875-30.289063 7.339843-4.054687 2.0625-9.039062.5-11.128906-3.546874-2.089844-4.050782-.5-9.035157 3.546875-11.128907 11.621094-6 24.71875-9.179687 37.871094-9.179687 45.53125 0 82.582031 37.050781 82.582031 82.582031 0 4.5625-3.691406 8.257813-8.257812 8.257813zm0 0" fill="#c8c5c9"/><path d="m99.097656 462.453125c0 27.363281-22.183594 49.546875-49.550781 49.546875-27.363281 0-49.546875-22.183594-49.546875-49.546875 0-27.367187 22.183594-49.550781 49.546875-49.550781 27.367187 0 49.550781 22.183594 49.550781 49.550781zm0 0" fill="#6f6571"/><path d="m223.355469 352.355469c-6.066407 0-11 4.933593-11 11 0 6.0625 4.933593 11 11 11 6.0625 0 11-4.9375 11-11 0-6.066407-4.9375-11-11-11zm0 0" fill="#91C33F"/><path   d="m301.652344 245.445312c-23.621094-14.703124-50.691406-22.476562-78.296875-22.476562s-54.675781 7.773438-78.296875 22.476562c-3.871094 2.402344-5.058594 7.5-2.648438 11.371094 2.414063 3.878906 7.511719 5.046875 11.371094 2.644532 21-13.066407 45.058594-19.976563 69.574219-19.976563s48.574219 6.910156 69.574219 19.976563c1.355468.847656 2.863281 1.25 4.355468 1.25 2.757813 0 5.449219-1.378907 7.015625-3.894532 2.410157-3.871094 1.222657-8.96875-2.648437-11.371094zm0 0" fill="#F6EB3D"/><path d="m278.652344 279.734375c-33.53125-20.242187-77.0625-20.242187-110.597656 0-3.902344 2.363281-5.160157 7.433594-2.804688 11.339844 2.355469 3.902343 7.445312 5.152343 11.339844 2.804687 28.402344-17.144531 65.128906-17.144531 93.53125 0 1.332031.804688 2.804687 1.183594 4.257812 1.183594 2.796875 0 5.523438-1.417969 7.082032-3.992188 2.355468-3.902343 1.097656-8.972656-2.808594-11.335937zm0 0" fill="#C6D634"/><path d="m255.445312 314.066406c-20.164062-11.308594-44.015624-11.308594-64.179687 0-3.984375 2.222656-5.402344 7.257813-3.167969 11.234375 2.21875 3.980469 7.25 5.410157 11.234375 3.167969 15.195313-8.5 32.855469-8.5 48.046875 0 1.273438.71875 2.660156 1.054688 4.023438 1.054688 2.898437 0 5.703125-1.523438 7.210937-4.226563 2.234375-3.972656.8125-9.007813-3.167969-11.230469zm0 0" fill="#91C33F"/><path d="m61.9375 499.613281c-27.367188 0-49.550781-22.183593-49.550781-49.546875 0-10.519531 3.328125-20.308594 8.917969-28.328125-12.851563 8.953125-21.304688 23.867188-21.304688 40.714844 0 27.363281 22.183594 49.546875 49.546875 49.546875 16.847656 0 31.777344-8.46875 40.730469-21.316406-8.019532 5.585937-17.824219 8.929687-28.339844 8.929687zm0 0" fill="#5d5360"/><path d="m473.210938 375.78125c-8.808594-2.765625-17.984376-4.167969-27.273438-4.167969-42.222656 0-77.742188 28.972657-87.875 68.066407-.941406 3.625-4.050781 6.253906-7.792969 6.253906h-300.722656v33.035156h305.550781c9.285156 0 16.464844-7.644531 16.515625-16.925781.222657-40.796875 33.472657-73.914063 74.320313-73.914063 7.605468 0 15.121094 1.144532 22.324218 3.410156 4.363282 1.355469 8.992188-1.0625 10.355469-5.402343 1.363281-4.355469-1.054687-8.984375-5.402343-10.355469zm0 0" fill="#dad8db"/><path d="m66.0625 462.453125c0 9.121094-7.394531 16.515625-16.515625 16.515625s-16.515625-7.394531-16.515625-16.515625 7.394531-16.515625 16.515625-16.515625 16.515625 7.394531 16.515625 16.515625zm0 0" fill="#fff"/><path d="m363.355469 33.03125h-41.289063c-9.125 0-16.515625-7.394531-16.515625-16.515625-.003906-9.121094 7.390625-16.515625 16.515625-16.515625h41.289063c9.121093 0 16.515625 7.394531 16.515625 16.515625s-7.394532 16.515625-16.515625 16.515625zm0 0" fill="#857e87"/><path d="m338.582031 16.515625c0 9.121094-7.394531 16.515625-16.515625 16.515625s-16.515625-7.394531-16.515625-16.515625 7.394531-16.515625 16.515625-16.515625 16.515625 7.394531 16.515625 16.515625zm0 0" fill="#6f6571"/></svg>